<svg width="12" height="12" viewBox="0 0 12 12" fill="none" xmlns="http://www.w3.org/2000/svg">
<path d="M9.54481 0.558228L11.2078 2.22118L9.94004 3.48946L8.27708 1.82651L9.54481 0.558228ZM3.45396 8.31203H5.11692L9.15623 4.27271L7.49328 2.60976L3.45396 6.64907V8.31203Z" fill="#232323"/>
<path d="M9.55146 9.97498H3.54155C3.52713 9.97498 3.51217 9.98053 3.49775 9.98053C3.47946 9.98053 3.46117 9.97554 3.44232 9.97498H1.79101V2.21453H5.58643L6.69506 1.10589H1.79101C1.1796 1.10589 0.682373 1.60256 0.682373 2.21453V9.97498C0.682373 10.5869 1.1796 11.0836 1.79101 11.0836H9.55146C9.84549 11.0836 10.1275 10.9668 10.3354 10.7589C10.5433 10.551 10.6601 10.269 10.6601 9.97498V5.17015L9.55146 6.27879V9.97498Z" fill="#232323"/>
</svg>
