<svg width="13" height="13" viewBox="0 0 13 13" fill="none" xmlns="http://www.w3.org/2000/svg">
<path d="M11.0769 2.79787C11.2379 2.79787 11.3923 2.73392 11.5061 2.62009C11.62 2.50625 11.6839 2.35186 11.6839 2.19087C11.6839 2.02989 11.62 1.87549 11.5061 1.76166C11.3923 1.64782 11.2379 1.58387 11.0769 1.58387C10.9159 1.58387 10.7616 1.64782 10.6477 1.76166C10.5339 1.87549 10.4699 2.02989 10.4699 2.19087C10.4699 2.35186 10.5339 2.50625 10.6477 2.62009C10.7616 2.73392 10.9159 2.79787 11.0769 2.79787ZM11.0769 0.369873C11.5599 0.369873 12.0231 0.561728 12.3646 0.903232C12.7061 1.24474 12.8979 1.70791 12.8979 2.19087V5.83287H10.4699V3.40487H3.18593V5.83287H0.757935V2.19087C0.757935 1.70791 0.949789 1.24474 1.29129 0.903232C1.6328 0.561728 2.09598 0.369873 2.57893 0.369873H11.0769ZM10.4699 10.2336C10.4699 10.4643 10.3425 10.6646 10.1482 10.7678L7.17392 12.4006C7.07073 12.4735 6.9554 12.5099 6.82793 12.5099C6.70046 12.5099 6.57906 12.4735 6.48194 12.4006L3.50764 10.7678C3.41033 10.7166 3.32889 10.6398 3.27217 10.5456C3.21546 10.4515 3.18563 10.3436 3.18593 10.2336V7.04687C3.18593 6.81621 3.3134 6.6159 3.50764 6.51271L6.48194 5.03163C6.57906 4.95879 6.70046 4.92237 6.82793 4.92237C6.9554 4.92237 7.07073 4.95879 7.17392 5.03163L10.1482 6.51271C10.3425 6.6159 10.4699 6.81621 10.4699 7.04687V10.2336ZM6.82793 6.22742L5.03121 7.04687L6.82793 8.01807L8.62465 7.04687L6.82793 6.22742ZM4.39993 9.87549L6.22093 10.8649V9.06818L4.39993 8.08484V9.87549ZM9.25593 9.87549V8.08484L7.43493 9.06818V10.8649L9.25593 9.87549Z" fill="#232323"/>
</svg>
