<svg width="20" height="18" viewBox="0 0 20 18" fill="none" xmlns="http://www.w3.org/2000/svg">
<path d="M18 16V4H2V16H18ZM18 0C18.5304 0 19.0391 0.210714 19.4142 0.585786C19.7893 0.960859 20 1.46957 20 2V16C20 16.5304 19.7893 17.0391 19.4142 17.4142C19.0391 17.7893 18.5304 18 18 18H2C1.46957 18 0.960859 17.7893 0.585786 17.4142C0.210714 17.0391 0 16.5304 0 16V2C0 1.46957 0.210714 0.960859 0.585786 0.585786C0.960859 0.210714 1.46957 0 2 0H18ZM11 14V12H16V14H11ZM7.58 10L3.57 6H6.4L9.7 9.3C10.09 9.69 10.09 10.33 9.7 10.72L6.42 14H3.59L7.58 10Z" fill="#232323"/>
</svg>
