<svg width="20" height="20" viewBox="0 0 20 20" fill="none" xmlns="http://www.w3.org/2000/svg">
<path d="M9.375 8.75001V6.87501L12.5 10L9.375 13.125V11.25H3.709L9.714 17.057L16.974 10L9.715 2.94201L5.869 6.68201C5.634 6.91001 5.316 7.03801 4.983 7.03801C4.65 7.03801 4.332 6.91001 4.096 6.68201C3.861 6.45201 3.729 6.14201 3.729 5.81901C3.729 5.49601 3.861 5.18601 4.096 4.95701L8.828 0.357007C9.06587 0.127001 9.38412 -0.00108617 9.715 6.93942e-06C10.0455 -0.000825544 10.3634 0.127243 10.601 0.357007L19.632 9.13801C19.7482 9.24976 19.8406 9.38378 19.9038 9.53205C19.9671 9.68033 19.9998 9.83982 20 10.001C20 10.323 19.868 10.633 19.633 10.861L10.601 19.643C10.366 19.872 10.047 20 9.715 20C9.383 20 9.063 19.872 8.828 19.643L0.563999 11.607C0.220999 11.282 0 10.863 0 10.373C0 9.88301 0.219999 9.46301 0.573999 9.12801C0.807999 8.90601 1.123 8.75001 1.45 8.75001H9.375Z" fill="#232323"/>
</svg>
