<svg width="19" height="13" viewBox="0 0 19 13" fill="none" xmlns="http://www.w3.org/2000/svg">
<path fill-rule="evenodd" clip-rule="evenodd" d="M1.92368 2.16648H4.40336V0.926636H1.30376L0.683838 1.54656V11.4653L1.30376 12.0852H4.40336V10.8454H1.92368V2.16648ZM17.4217 0.926636H14.3221V2.16648H16.8018V10.8454H14.3221V12.0852H17.4217L18.0416 11.4653V1.54656L17.4217 0.926636ZM14.0245 4.11303L14.3221 4.64616V7.75816L13.9501 8.31609L8.37086 10.7958H7.80053L4.70093 8.93602L4.40336 8.40288V5.30328L4.77532 4.73295L10.3546 2.25327H10.9249L14.0245 4.11303ZM5.64321 8.00613L7.50297 9.12199V7.473L5.64321 6.35714V8.00613ZM6.36231 5.34047L8.16009 6.41914L12.3632 4.55937L10.5654 3.48071L6.36231 5.34047ZM8.78001 9.27077L13.1195 7.33662V5.60084L8.78001 7.52259V9.27077Z" fill="#232323"/>
</svg>
